Coordinates
version=1
nRows=32
nColumns=12
inDegrees=yes

Units are S.I. units (second, meters, Newtons, ...)
Angles are in degrees

endheader
time	SC_y	SC_z	SC_x	AC_y	AC_z	AC_x	GH_y	GH_z	GH_yy	EL_x	PS_y
       0.0              -13.22          9.119          3.176          69.01         -8.207         -4.429          125.3         -14.89          21.53          42.14          127.1
   0.02202              -13.23          9.122          3.177          69.01         -8.207         -4.428          125.3         -14.88          21.55          42.15          127.1
   0.04403              -13.23          9.124          3.179          69.01         -8.208         -4.427          125.3         -14.87          21.57          42.16          127.1
   0.06605              -13.24          9.127          3.181          69.01         -8.209         -4.425          125.2         -14.85          21.59          42.16          127.1
   0.08806              -13.24           9.13          3.183          69.01          -8.21         -4.424          125.2         -14.84          21.62          42.17          127.1
    0.1101              -13.25          9.133          3.185           69.0          -8.21         -4.422          125.2         -14.82          21.64          42.18          127.1
    0.1321              -13.25          9.136          3.187           69.0         -8.211         -4.421          125.2         -14.81          21.67          42.19          127.1
    0.1541              -13.26           9.14           3.19           69.0         -8.212         -4.419          125.2         -14.79           21.7           42.2          127.1
    0.1761              -13.27          9.144          3.192           69.0         -8.213         -4.418          125.1         -14.77          21.73          42.21          127.1
    0.1981              -13.28          9.148          3.195          68.99         -8.215         -4.416          125.1         -14.75          21.76          42.22          127.1
    0.2202              -13.28          9.152          3.198          68.99         -8.216         -4.414          125.1         -14.73           21.8          42.23          127.1
    0.2422              -13.29          9.157          3.201          68.99         -8.217         -4.412          125.1         -14.71          21.83          42.24          127.1
    0.2642               -13.3          9.162          3.205          68.98         -8.218         -4.409          125.0         -14.68          21.88          42.26          127.1
    0.2862              -13.31          9.167          3.209          68.98          -8.22         -4.407          125.0         -14.65          21.92          42.27          127.2
    0.3082              -13.32          9.173          3.213          68.97         -8.222         -4.404          125.0         -14.63          21.97          42.29          127.2
    0.3302              -13.34          9.179          3.217          68.97         -8.223         -4.401          124.9         -14.59          22.02          42.31          127.2
    0.3523              -13.35          9.186          3.222          68.96         -8.225         -4.398          124.9         -14.56          22.08          42.32          127.2
    0.3743              -13.36          9.194          3.227          68.96         -8.227         -4.394          124.8         -14.52          22.14          42.34          127.2
    0.3963              -13.38          9.202          3.233          68.95          -8.23          -4.39          124.8         -14.48          22.21          42.37          127.2
    0.4183               -13.4          9.211          3.239          68.95         -8.232         -4.386          124.7         -14.44          22.28          42.39          127.2
    0.4403              -13.42          9.221          3.246          68.94         -8.235         -4.382          124.7         -14.39          22.36          42.42          127.2
    0.4623              -13.44          9.232          3.254          68.93         -8.238         -4.376          124.6         -14.33          22.45          42.45          127.3
    0.4843              -13.46          9.244          3.262          68.92         -8.241         -4.371          124.5         -14.27          22.55          42.48          127.3
    0.5064              -13.49          9.258          3.271          68.91         -8.245         -4.365          124.5         -14.21          22.66          42.52          127.3
    0.5284              -13.51          9.272          3.282           68.9         -8.249         -4.358          124.4         -14.13          22.78          42.56          127.3
    0.5504              -13.55          9.289          3.293          68.89         -8.254          -4.35          124.3         -14.05          22.91           42.6          127.4
    0.5724              -13.58          9.308          3.306          68.88         -8.259         -4.341          124.1         -13.96          23.07          42.65          127.4
    0.5944              -13.62          9.329          3.321          68.86         -8.265         -4.332          124.0         -13.85          23.24          42.71          127.4
    0.6164              -13.67          9.352          3.337          68.84         -8.271         -4.321          123.9         -13.74          23.43          42.77          127.5
    0.6385              -13.72          9.379          3.356          68.82         -8.279         -4.308          123.7          -13.6          23.65          42.85          127.5
    0.6605              -13.78           9.41          3.377           68.8         -8.287         -4.294          123.5         -13.45           23.9          42.93          127.5
    0.6825              -13.84          9.445          3.401          68.78         -8.297         -4.278          123.3         -13.28          24.18          43.02          127.6
